<?xml version="1.0" encoding="UTF-8" standalone="no"?>
<svg
   xmlns:dc="http://purl.org/dc/elements/1.1/"
   xmlns:cc="http://creativecommons.org/ns#"
   xmlns:rdf="http://www.w3.org/1999/02/22-rdf-syntax-ns#"
   xmlns:svg="http://www.w3.org/2000/svg"
   xmlns="http://www.w3.org/2000/svg"
   xmlns:sodipodi="http://sodipodi.sourceforge.net/DTD/sodipodi-0.dtd"
   xmlns:inkscape="http://www.inkscape.org/namespaces/inkscape"
   width="24"
   height="24"
   viewBox="0 0 6.3499999 6.3500002"
   version="1.1"
   id="svg1970"
   inkscape:version="1.0 (4035a4f, 2020-05-01)"
   sodipodi:docname="8.svg">
  <defs
     id="defs1964" />
  <sodipodi:namedview
     id="base"
     pagecolor="#ffffff"
     bordercolor="#666666"
     borderopacity="1.0"
     inkscape:pageopacity="0.0"
     inkscape:pageshadow="2"
     inkscape:zoom="7.919596"
     inkscape:cx="15.018412"
     inkscape:cy="13.937294"
     inkscape:document-units="mm"
     inkscape:current-layer="layer1"
     inkscape:document-rotation="0"
     showgrid="false"
     units="px"
     inkscape:window-width="1252"
     inkscape:window-height="675"
     inkscape:window-x="1618"
     inkscape:window-y="208"
     inkscape:window-maximized="0" />
  <metadata
     id="metadata1967">
    <rdf:RDF>
      <cc:Work
         rdf:about="">
        <dc:format>image/svg+xml</dc:format>
        <dc:type
           rdf:resource="http://purl.org/dc/dcmitype/StillImage" />
        <dc:title />
      </cc:Work>
    </rdf:RDF>
  </metadata>
  <g
     style="opacity:0.996"
     inkscape:label="Layer 1"
     inkscape:groupmode="layer"
     id="layer1">
    <path
       inkscape:transform-center-y="2.9087999"
       inkscape:transform-center-x="1.2013333"
       transform="matrix(0.91554731,0.37923621,-0.37923621,0.91554731,8.5673336,4.2024476)"
       sodipodi:type="star"
       style="fill:#ffffff;fill-rule:evenodd;stroke:#000000;stroke-width:0.534028;stroke-linecap:round;stroke-linejoin:miter;stroke-miterlimit:4;stroke-dasharray:none;stroke-dashoffset:0;paint-order:markers fill stroke;stop-color:#000000"
       id="path1946-3"
       sodipodi:sides="8"
       sodipodi:cx="-5.4239583"
       sodipodi:cy="1.1244791"
       sodipodi:r1="3.175"
       sodipodi:r2="2.9368749"
       sodipodi:arg1="0"
       sodipodi:arg2="0.39269908"
       inkscape:flatsided="false"
       inkscape:rounded="-2.77556e-17"
       inkscape:randomized="0"
       d="M -2.2489583,1.1244791 -2.7106397,2.2483724 -3.1788943,3.3695431 -4.3000649,3.8377976 -5.4239583,4.299479 -6.5478517,3.8377976 -7.6690223,3.3695431 -8.1372769,2.2483724 -8.5989583,1.1244791 -8.1372769,5.8570568e-4 -7.6690223,-1.1205849 l 1.1211706,-0.4682546 1.1238934,-0.4616814 1.1238933,0.4616814 1.1211707,0.4682546 0.4682546,1.12117059646 z" />
    <path
       id="path1788"
       style="opacity:0.996;fill:#000000;fill-rule:evenodd;stroke:none;stroke-width:633.902;stroke-linecap:round;stroke-linejoin:bevel;stroke-miterlimit:4;stroke-dasharray:none;stroke-dashoffset:0;paint-order:markers fill stroke;stop-color:#000000"
       d="m 3.1671385,1.4552119 a 1.9568382,1.9568382 0 0 0 -1.949095,1.956957 1.9568382,1.9568382 0 0 0 0.679399,1.4819671 1.4824532,1.4824532 0 0 1 -0.205064,-0.753431 1.4824532,1.4824532 0 0 1 1.482621,-1.4819681 1.4824532,1.4824532 0 0 1 1.4826231,1.4819681 1.4824532,1.4824532 0 0 1 -0.206375,0.7540869 1.9568382,1.9568382 0 0 0 0.6807089,-1.482623 1.9568382,1.9568382 0 0 0 -1.956957,-1.956957 1.9568382,1.9568382 0 0 0 -0.0078,0 z" />
  </g>
</svg>
