<?xml version="1.0" encoding="utf-8"?><svg version="1.1" id="Layer_1" xmlns="http://www.w3.org/2000/svg" xmlns:xlink="http://www.w3.org/1999/xlink" x="0px" y="0px" viewBox="0 0 122.88 94.47" style="enable-background:new 0 0 122.88 94.47" xml:space="preserve"><g><path d="M37.99,93.53c0.9-6.6,4.27-12.44,9.18-16.6c4.83-4.09,11.14-6.57,18.04-6.57c6.91,0,13.23,2.49,18.06,6.59 c4.91,4.17,8.28,10.02,9.17,16.62l-6.72,0.9c-0.66-4.89-3.17-9.24-6.84-12.35c-3.64-3.09-8.43-4.97-13.67-4.97 c-5.24,0-10.02,1.87-13.66,4.95c-3.67,3.11-6.18,7.44-6.85,12.32L37.99,93.53L37.99,93.53z M10.25,73.86 c-0.24-0.12-0.48-0.28-0.7-0.46c-1.67-1.4-3.14-2.98-4.39-4.71C1.84,64.09,0.04,58.48,0,52.9c-0.04-5.64,1.72-11.27,5.51-15.81 c1.23-1.47,2.67-2.83,4.33-4.03c1.93-1.4,4.13-2.58,6.62-3.54c1.72-0.67,3.55-1.23,5.49-1.67c2.19-8.71,6.88-15.43,12.89-20.09 c5.62-4.36,12.4-6.9,19.37-7.57c6.94-0.67,14.09,0.51,20.49,3.59C81.7,7.13,87.8,12.73,91.76,20.6c1.59-0.25,3.19-0.37,4.78-0.36 c6.7,0.04,13.16,2.44,18.26,7.93c1.07,1.15,2.08,2.44,3.02,3.89c3.19,4.91,4.83,11.46,4.76,17.88c-0.07,6.29-1.77,12.56-5.24,17.17 c-0.28,0.37-0.61,0.67-0.98,0.9c4.17,7.78,6.53,16.62,6.53,25.99h-6.69c0-13.73-5.75-26.17-15.05-35.17 c-9.32-9.02-22.22-14.6-36.47-14.6s-27.15,5.58-36.48,14.6c-9.3,9-15.05,21.44-15.05,35.17H6.44C6.44,86.9,7.79,80.11,10.25,73.86 L10.25,73.86z M112.28,61.52c1.95-3.2,2.92-7.38,2.97-11.65c0.06-5.06-1.17-10.13-3.58-13.83c-0.69-1.06-1.44-2.02-2.24-2.88 c-3.6-3.88-8.17-5.57-12.92-5.6c-3.45-0.02-7,0.81-10.38,2.3c-0.75,0.37-1.5,0.77-2.25,1.21c-2.25,1.31-4.46,2.92-6.72,4.77 l-4.82-5.53c1.66-1.55,3.47-2.95,5.39-4.2c1.53-1,3.13-1.88,4.76-2.64c0.66-0.33,1.32-0.64,1.99-0.93 c-3.18-5.63-7.76-9.68-12.95-12.17c-5.19-2.49-10.99-3.44-16.65-2.9c-5.62,0.54-11.07,2.58-15.58,6.08 c-5.21,4.05-9.18,10.09-10.7,18.1l-0.48,2.5l-2.5,0.44c-2.44,0.43-4.62,1.02-6.54,1.76c-1.86,0.72-3.51,1.61-4.95,2.65 c-1.16,0.84-2.16,1.78-3,2.79c-2.63,3.15-3.84,7.09-3.81,11.07c0.03,4.05,1.35,8.14,3.78,11.51c0.7,0.97,1.49,1.87,2.37,2.69 c2.7-4.81,6.09-9.19,10.05-13.03c10.54-10.2,25.08-16.51,41.13-16.51c16.05,0,30.59,6.31,41.13,16.51 C108.17,56.35,110.34,58.85,112.28,61.52L112.28,61.52z M22.82,93.82c0.52-10.9,5.44-20.69,13.07-27.73 c7.57-6.99,17.8-11.27,29.06-11.27c11.26,0,21.49,4.29,29.06,11.27c7.63,7.04,12.54,16.82,13.07,27.73l-6.77,0.32 c-0.44-9.05-4.53-17.18-10.89-23.05c-6.35-5.86-14.97-9.47-24.46-9.47c-9.5,0-18.11,3.6-24.47,9.47 c-6.36,5.87-10.45,14.01-10.89,23.06L22.82,93.82L22.82,93.82z"/></g></svg>