<svg xmlns="http://www.w3.org/2000/svg" viewBox="0 0 122.88 65.06">
  <path d="M.95 30.01c2.92-3.53 5.98-6.74 9.15-9.63C24.44 7.33 41.46.36 59.01.01c17.51-.35 35.47 5.9 51.7 19.29 3.88 3.2 7.63 6.77 11.24 10.74a3.564 3.564 0 01.23 4.51c-4.13 5.83-8.88 10.82-14.07 14.96-12.99 10.37-28.77 15.47-44.76 15.55-15.93.07-32.06-4.86-45.8-14.57A82.228 82.228 0 01.77 34.64c-1.11-1.4-1-3.37.18-4.63zm60.49-3.55c.59 0 1.17.09 1.71.24-.46.5-.73 1.17-.73 1.9 0 1.56 1.26 2.82 2.82 2.82.77 0 1.46-.3 1.97-.8.2.6.3 1.24.3 1.9 0 3.35-2.72 6.07-6.07 6.07s-6.07-2.72-6.07-6.07c0-3.34 2.72-6.06 6.07-6.06zm0-15.64c5.99 0 11.42 2.43 15.35 6.36 3.93 3.93 6.36 9.35 6.36 15.35 0 5.99-2.43 11.42-6.36 15.35a21.628 21.628 0 01-15.35 6.36c-5.99 0-11.42-2.43-15.35-6.36a21.628 21.628 0 01-6.36-15.35c0-5.99 2.43-11.42 6.36-15.35 3.93-3.93 9.36-6.36 15.35-6.36zm10.45 11.26a14.746 14.746 0 00-10.45-4.33c-4.08 0-7.78 1.65-10.45 4.33a14.746 14.746 0 00-4.33 10.45c0 4.08 1.65 7.78 4.33 10.45 2.67 2.67 6.37 4.33 10.45 4.33 4.08 0 7.78-1.65 10.45-4.33 2.67-2.67 4.33-6.37 4.33-10.45 0-4.08-1.66-7.78-4.33-10.45zm-57 3.55a86.454 86.454 0 00-6.7 6.82c4.07 4.72 8.6 8.8 13.45 12.23 12.54 8.85 27.21 13.35 41.69 13.29 14.42-.07 28.65-4.67 40.37-14.02 4-3.19 7.7-6.94 11.03-11.25-2.79-2.91-5.63-5.54-8.51-7.92C91.33 12.51 75 6.79 59.15 7.1c-15.81.32-31.22 6.66-44.26 18.53z" />
</svg>