<?xml version="1.0" encoding="utf-8"?>
<!-- Generator: Adobe Illustrator 26.2.1, SVG Export Plug-In . SVG Version: 6.00 Build 0)  -->
<svg version="1.1" id="Ebene_1" xmlns="http://www.w3.org/2000/svg" xmlns:xlink="http://www.w3.org/1999/xlink" x="0px" y="0px"
	 viewBox="0 0 3000 3000" style="enable-background:new 0 0 3000 3000;" xml:space="preserve">
<style type="text/css">
	.st0{fill:#FFFFFF;}
</style>
<g>
	<path class="st0" d="M1506.1,666l-716.6,413.9v827.3l716.6,413.7l716.6-413.7v-827.3L1506.1,666z M1895.3,1577.6h-304.9v304.7
		h-168.5v-304.7h-305.1v-168.3h305.1v-305.1h168.5v305.1h304.9V1577.6z"/>
	<path class="st0" d="M490.6,1493.1c0.7-524.6,400.4-962.6,922.8-1010.9V297.4c-660.2,50.7-1154.3,627-1103.5,1287.2
		c11.4,147.9,50,292.3,114.1,426.1l160.5-92.5C522.6,1785.1,490.5,1640,490.6,1493.1z"/>
	<path class="st0" d="M1598.2,297.4v184.8c558,50.4,969.5,543.7,919.1,1101.7c-10.5,116-40.8,229.3-89.8,334.9l160.5,92.7
		c286.4-597,34.7-1313.1-562.2-1599.5C1891.6,347.6,1746.6,308.8,1598.2,297.4z"/>
	<path class="st0" d="M1506.1,2508.6c-330.2-0.1-639.6-160.9-829.5-430.9l-160.5,92.5C889.4,2716.6,1635,2857,2181.4,2483.7
		c123.1-84.1,229.4-190.4,313.5-313.5l-160.5-92.5C2144.7,2347.4,1835.8,2508,1506.1,2508.6z"/>
</g>
</svg>
