<?xml version="1.0" encoding="UTF-8" standalone="no"?>
<!-- Created with Inkscape (http://www.inkscape.org/) -->

<svg
   width="92mm"
   height="92mm"
   viewBox="0 0 94.763398 79.819246"
   version="1.1"
   id="svg2468"
   inkscape:version="1.1.1 (3bf5ae0d25, 2021-09-20)"
   sodipodi:docname="advantage.svg"
   xmlns:inkscape="http://www.inkscape.org/namespaces/inkscape"
   xmlns:sodipodi="http://sodipodi.sourceforge.net/DTD/sodipodi-0.dtd"
   xmlns="http://www.w3.org/2000/svg"
   xmlns:svg="http://www.w3.org/2000/svg">
  <sodipodi:namedview
     id="namedview2470"
     pagecolor="#ffffff"
     bordercolor="#666666"
     borderopacity="1.0"
     inkscape:pageshadow="2"
     inkscape:pageopacity="0.0"
     inkscape:pagecheckerboard="0"
     inkscape:document-units="mm"
     showgrid="false"
     inkscape:zoom="0.70551957"
     inkscape:cx="-41.813156"
     inkscape:cy="261.5094"
     inkscape:window-width="1920"
     inkscape:window-height="1017"
     inkscape:window-x="1358"
     inkscape:window-y="-8"
     inkscape:window-maximized="1"
     inkscape:current-layer="layer1" />
  <defs
     id="defs2465" />
  <g
     inkscape:label="Calque 1"
     inkscape:groupmode="layer"
     id="layer1"
     transform="translate(-54.303702,-62.236427)">
    <path
       style="fill:#000000;stroke:#000000;stroke-width:0.230757px;stroke-linecap:butt;stroke-linejoin:miter;stroke-opacity:1"
       d="m 121.28536,132.03015 c 10.87234,-4.72963 21.5574,-7.79741 27.66915,-35.074974 -9.92056,11.261564 -20.23651,9.030054 -29.42591,6.332974"
       id="path2929-9"
       sodipodi:nodetypes="ccc" />
    <path
       style="fill:#000000;stroke:#000000;stroke-width:0.230757px;stroke-linecap:butt;stroke-linejoin:miter;stroke-opacity:1"
       d="m 82.085444,132.22274 c -10.872355,-4.72963 -21.557398,-7.7974 -27.669155,-35.074972 9.920557,11.261582 20.236508,9.030062 29.425923,6.332982"
       id="path2929-9-9"
       sodipodi:nodetypes="ccc" />
    <path
       id="path3234"
       style="fill:#000000;stroke:none;stroke-width:1.15674"
       d="m 98.708129,48.898722 a 38.120739,43.033723 0 0 1 0.624656,-0.0408 20.868265,25.729156 0 0 0 -0.458953,0.02134 20.868265,25.729156 0 0 0 -0.165703,0.01946 z" />
    <path
       id="path3798"
       style="fill:#000000;stroke:none;stroke-width:1.15674"
       d="m 89.640088,60.68894 a 38.120739,43.033723 0 0 0 -25.990687,40.73951 38.120739,43.033723 0 0 0 38.120509,43.03357 38.120739,43.033723 0 0 0 38.12108,-43.03357 38.120739,43.033723 0 0 0 -24.89056,-40.356734 24.79398,25.729158 0 0 1 0.51532,0.335717 24.79398,25.729158 0 0 1 0.65883,0.460586 24.79398,25.729158 0 0 1 0.64457,0.483179 24.79398,25.729158 0 0 1 0.62923,0.503257 24.79398,25.729158 0 0 1 0.61324,0.524597 24.79398,25.729158 0 0 1 0.59734,0.544673 24.79398,25.729158 0 0 1 0.57967,0.564128 24.79398,25.729158 0 0 1 0.56202,0.583579 24.79398,25.729158 0 0 1 0.54322,0.601151 24.79398,25.729158 0 0 1 0.52502,0.619973 24.79398,25.729158 0 0 1 0.50565,0.636291 24.79398,25.729158 0 0 1 0.48513,0.652613 24.79398,25.729158 0 0 1 0.46522,0.668921 24.79398,25.729158 0 0 1 0.44415,0.683977 24.79398,25.729158 0 0 1 0.42309,0.698419 24.79398,25.729158 0 0 1 0.40086,0.712221 24.79398,25.729158 0 0 1 0.37924,0.724766 24.79398,25.729158 0 0 1 0.35589,0.737321 24.79398,25.729158 0 0 1 0.33368,0.748614 24.79398,25.729158 0 0 1 0.30976,0.759911 24.79398,25.729158 0 0 1 0.28643,0.769316 24.79398,25.729158 0 0 1 0.2625,0.778111 24.79398,25.729158 0 0 1 0.23859,0.78689 24.79398,25.729158 0 0 1 0.21354,0.794432 24.79398,25.729158 0 0 1 0.18961,0.801314 24.79398,25.729158 0 0 1 0.16399,0.806352 24.79398,25.729158 0 0 1 0.13951,0.811984 24.79398,25.729158 0 0 1 0.11446,0.816383 24.79398,25.729158 0 0 1 0.0887,0.819515 24.79398,25.729158 0 0 1 0.0638,0.822042 24.79398,25.729158 0 0 1 0.0382,0.823915 24.79398,25.729158 0 0 1 0.0125,0.824546 24.79398,25.729158 0 0 1 -0.10533,2.374477 24.79398,25.729158 0 0 1 -0.31661,2.353775 24.79398,25.729158 0 0 1 -0.52444,2.312971 24.79398,25.729158 0 0 1 -0.72772,2.253352 24.79398,25.729158 0 0 1 -0.92473,2.174311 24.79398,25.729158 0 0 1 -1.11494,2.075778 24.79398,25.729158 0 0 1 -1.29372,1.960968 24.79398,25.729158 0 0 1 -1.46341,1.828548 24.79398,25.729158 0 0 1 -1.61945,1.68046 24.79398,25.729158 0 0 1 -1.76178,1.51793 24.79398,25.729158 0 0 1 -1.36036,0.96697 17.975633,23.566087 0 0 1 0.1754,0.29306 17.975633,23.566087 0 0 1 0.36272,0.64946 17.975633,23.566087 0 0 1 0.34506,0.66516 17.975633,23.566087 0 0 1 0.32799,0.68021 17.975633,23.566087 0 0 1 0.30977,0.69465 17.975633,23.566087 0 0 1 0.29154,0.70845 17.975633,23.566087 0 0 1 0.27331,0.72037 17.975633,23.566087 0 0 1 0.25397,0.7323 17.975633,23.566087 0 0 1 0.23517,0.74359 17.975633,23.566087 0 0 1 0.21525,0.75364 17.975633,23.566087 0 0 1 0.19531,0.76241 17.975633,23.566087 0 0 1 0.17595,0.77119 17.975633,23.566087 0 0 1 0.15546,0.77874 17.975633,23.566087 0 0 1 0.13494,0.78501 17.975633,23.566087 0 0 1 0.11502,0.79003 17.975633,23.566087 0 0 1 0.0939,0.79566 17.975633,23.566087 0 0 1 0.0736,0.79882 17.975633,23.566087 0 0 1 0.0525,0.80196 17.975633,23.566087 0 0 1 0.0307,0.8032 17.975633,23.566087 0 0 1 0.0115,0.80446 17.975633,23.566087 0 0 1 -0.0865,2.30984 17.975633,23.566087 0 0 1 -0.25909,2.28787 17.975633,23.566087 0 0 1 -0.15204,0.79506 17.386004,19.069518 0 0 1 0,6.4e-4 17.386004,19.069518 0 0 1 -0.0243,0.25538 17.386004,19.069518 0 0 1 -0.32684,2.10842 17.386004,19.069518 0 0 1 -0.53925,2.05445 17.386004,19.069518 0 0 1 -0.74652,1.97601 17.386004,19.069518 0 0 1 -0.94297,1.87186 17.386004,19.069518 0 0 1 -1.12801,1.74381 17.386004,19.069518 0 0 1 -1.29942,1.59449 17.386004,19.069518 0 0 1 -0.3223,0.33382 17.975633,23.566087 0 0 1 -0.74481,0.88541 17.975633,23.566087 0 0 1 -1.41671,1.378 17.975633,23.566087 0 0 1 -1.51353,1.18849 17.975633,23.566087 0 0 1 -1.59438,0.98894 17.975633,23.566087 0 0 1 -1.661,0.77937 17.975633,23.566087 0 0 1 -1.71111,0.56162 17.975633,23.566087 0 0 1 -1.7447,0.33949 17.975633,23.566087 0 0 1 -1.76236,0.11357 17.975633,23.566087 0 0 1 -1.761794,-0.11357 17.975633,23.566087 0 0 1 -1.74471,-0.33949 17.975633,23.566087 0 0 1 -1.711113,-0.56162 17.975633,23.566087 0 0 1 -1.661002,-0.77937 17.975633,23.566087 0 0 1 -1.594952,-0.98894 17.975633,23.566087 0 0 1 -1.512953,-1.18849 17.975633,23.566087 0 0 1 -1.416719,-1.378 17.975633,23.566087 0 0 1 -1.307394,-1.55306 17.975633,23.566087 0 0 1 -1.184398,-1.71371 17.975633,23.566087 0 0 1 -1.051152,-1.85741 17.975633,23.566087 0 0 1 -0.906519,-1.98354 17.975633,23.566087 0 0 1 -0.754483,-2.09084 17.975633,23.566087 0 0 1 -0.594479,-2.17743 17.975633,23.566087 0 0 1 -0.428204,-2.24333 17.975633,23.566087 0 0 1 -0.259087,-2.28789 17.975633,23.566087 0 0 1 -0.08656,-2.30984 17.975633,23.566087 0 0 1 0.08656,-2.30984 17.975633,23.566087 0 0 1 0.259087,-2.28724 17.975633,23.566087 0 0 1 0.428204,-2.24333 17.975633,23.566087 0 0 1 0.594479,-2.17745 17.975633,23.566087 0 0 1 0.754483,-2.09084 17.975633,23.566087 0 0 1 0.906519,-1.98354 17.975633,23.566087 0 0 1 1.051152,-1.85741 17.975633,23.566087 0 0 1 0.09624,-0.1393 24.79398,25.729158 0 0 1 -0.576827,-0.41038 24.79398,25.729158 0 0 1 -1.76179,-1.51794 24.79398,25.729158 0 0 1 -1.619433,-1.68045 24.79398,25.729158 0 0 1 -1.463414,-1.828558 24.79398,25.729158 0 0 1 -1.293726,-1.960948 24.79398,25.729158 0 0 1 -1.114929,-2.075798 24.79398,25.729158 0 0 1 -0.924741,-2.174309 24.79398,25.729158 0 0 1 -0.727721,-2.253353 24.79398,25.729158 0 0 1 -0.524439,-2.312971 24.79398,25.729158 0 0 1 -0.316598,-2.353763 24.79398,25.729158 0 0 1 -0.105341,-2.37449 24.79398,25.729158 0 0 1 0.105341,-2.373855 24.79398,25.729158 0 0 1 0.316598,-2.353763 24.79398,25.729158 0 0 1 0.524439,-2.312991 24.79398,25.729158 0 0 1 0.727721,-2.253374 24.79398,25.729158 0 0 1 0.924741,-2.17431 24.79398,25.729158 0 0 1 1.114929,-2.076415 24.79398,25.729158 0 0 1 1.293726,-1.960327 24.79398,25.729158 0 0 1 1.463414,-1.82855 24.79398,25.729158 0 0 1 1.619433,-1.680468 24.79398,25.729158 0 0 1 1.76179,-1.517931 24.79398,25.729158 0 0 1 1.889343,-1.343485 24.79398,25.729158 0 0 1 0.702667,-0.405995 z" />
    <ellipse
       style="fill:#000000;stroke:none;stroke-width:1.67225"
       id="path2922"
       cx="102.29266"
       cy="82.052017"
       rx="8.2646599"
       ry="8.9938202" />
  </g>
</svg>
