<?xml version="1.0" encoding="UTF-8" standalone="no"?>
<!-- Created with Inkscape (http://www.inkscape.org/) -->

<svg
   width="91.061852mm"
   height="91.990982mm"
   viewBox="0 0 91.061852 91.990982"
   version="1.1"
   id="svg5"
   inkscape:version="1.1.1 (3bf5ae0d25, 2021-09-20)"
   sodipodi:docname="success.svg"
   xmlns:inkscape="http://www.inkscape.org/namespaces/inkscape"
   xmlns:sodipodi="http://sodipodi.sourceforge.net/DTD/sodipodi-0.dtd"
   xmlns="http://www.w3.org/2000/svg"
   xmlns:svg="http://www.w3.org/2000/svg">
  <sodipodi:namedview
     id="namedview7"
     pagecolor="#ffffff"
     bordercolor="#666666"
     borderopacity="1.0"
     inkscape:pageshadow="2"
     inkscape:pageopacity="0.0"
     inkscape:pagecheckerboard="0"
     inkscape:document-units="mm"
     showgrid="false"
     inkscape:zoom="1.8529742"
     inkscape:cx="182.67929"
     inkscape:cy="150.83858"
     inkscape:window-width="1920"
     inkscape:window-height="1017"
     inkscape:window-x="1358"
     inkscape:window-y="-8"
     inkscape:window-maximized="1"
     inkscape:current-layer="layer1" />
  <defs
     id="defs2" />
  <g
     inkscape:label="Calque 1"
     inkscape:groupmode="layer"
     id="layer1"
     transform="translate(-51.936296,-89.801063)">
    <path
       style="fill:#000000;stroke-width:0.571153"
       d="m 96.536141,181.29375 c 0.0061,-0.28796 -1.467927,-8.96425 -3.275677,-19.28065 -2.39477,-13.66638 -3.52163,-18.88208 -4.152005,-19.21764 -0.475854,-0.25331 -8.447255,-1.78244 -17.714228,-3.39807 -9.26697,-1.61563 -17.827672,-3.11995 -19.023779,-3.34293 -1.760792,-0.32825 1.445244,-1.04068 16.843322,-3.74282 10.459934,-1.83557 19.40997,-3.54714 19.888967,-3.80349 0.637789,-0.34134 1.764914,-5.56329 4.210838,-19.50876 1.836963,-10.473464 3.401775,-19.112001 3.477361,-19.19675 0.07559,-0.08475 0.726405,3.256502 1.446265,7.425002 4.286455,24.821598 5.496755,30.829888 6.300045,31.275138 0.46235,0.25627 9.41379,1.95994 19.89208,3.78591 10.47829,1.82598 18.83141,3.38025 18.5625,3.45394 -0.26892,0.0737 -8.84207,1.58808 -19.05144,3.36533 -10.20938,1.77724 -18.95184,3.43761 -19.42769,3.68971 -0.63101,0.33429 -1.7692,5.6126 -4.20512,19.50101 -2.902381,16.54796 -3.817432,21.15666 -3.771439,18.99507 z"
       id="path2016" />
    <path
       style="fill:none;stroke:#000000;stroke-width:0.273389px;stroke-linecap:butt;stroke-linejoin:miter;stroke-opacity:1"
       d="m 96.479494,128.6015 c 0,0 0,0 -16.570938,-8.82769 9.46911,15.59558 9.46911,15.59558 9.46911,15.59558"
       id="path4333" />
    <path
       style="fill:none;stroke:#000000;stroke-width:0.273389px;stroke-linecap:butt;stroke-linejoin:miter;stroke-opacity:1"
       d="m 96.479494,128.6015 c 0,0 0,0 16.570936,-8.82769 -9.46911,15.59558 -9.46911,15.59558 -9.46911,15.59558"
       id="path4333-0" />
    <path
       style="fill:none;stroke:#000000;stroke-width:0.273389px;stroke-linecap:butt;stroke-linejoin:miter;stroke-opacity:1"
       d="m 96.47949,142.13728 c 0,0 0,0 16.57094,8.82769 -9.46911,-15.59558 -9.46911,-15.59558 -9.46911,-15.59558"
       id="path4333-6" />
    <path
       style="fill:none;stroke:#000000;stroke-width:0.273389px;stroke-linecap:butt;stroke-linejoin:miter;stroke-opacity:1"
       d="m 96.47949,142.13728 c 0,0 0,0 -16.570938,8.82769 9.46911,-15.59558 9.46911,-15.59558 9.46911,-15.59558"
       id="path4333-4" />
    <path
       style="fill:#000000;stroke-width:0.368181"
       d="m 104.24361,129.58113 c -0.99901,-0.51423 -2.23141,-3.76267 -1.63518,-4.31014 0.71628,-0.65771 10.46578,-5.69554 10.33481,-5.34027 -0.0759,0.20588 -1.44136,2.56758 -3.03436,5.24823 -3.112,5.23678 -3.4833,5.52529 -5.66527,4.40218 z"
       id="path4682" />
    <path
       style="fill:#000000;stroke-width:1.07935"
       d="m 110.09328,226.75486 c 0,-0.87005 15.10035,-25.68281 16.64705,-27.35429 0.98519,-1.06466 2.56965,-1.09402 7.34001,-0.13599 6.23807,1.25278 6.45546,1.46916 8.78407,8.74319 0.47383,1.48014 -2.59427,3.5421 -15.25712,10.25378 -18.23396,9.66454 -17.51401,9.3154 -17.51401,8.49331 z"
       id="path4760"
       transform="matrix(0.26458333,0,0,0.26458333,51.936296,89.801063)" />
    <path
       style="fill:#000000;stroke-width:0.377054"
       d="m 89.212559,130.01178 c 1.026201,-0.52503 2.292144,-3.84166 1.679686,-4.40062 -0.735776,-0.67152 -10.750633,-5.8151 -10.616098,-5.45238 0.07797,0.21021 1.48059,2.62148 3.116947,5.3584 3.196701,5.34672 3.578108,5.64128 5.819465,4.4946 z"
       id="path4682-4" />
    <path
       style="fill:#000000;stroke-width:0.422686"
       d="m 91.84558,141.21714 c -0.614987,-1.10097 -4.499878,-2.45916 -5.154608,-1.80207 -0.786577,0.78938 -6.811442,11.53397 -6.386574,11.38963 0.246226,-0.0837 3.070636,-1.58848 6.276491,-3.34405 6.262811,-3.42963 6.60784,-3.83884 5.264691,-6.24351 z"
       id="path4682-4-1" />
    <path
       style="fill:#ffffff;stroke:#000000;stroke-width:2.03971"
       d="m 211.95654,220.28368 c -9.05301,-4.83137 -16.56987,-8.88843 -16.70412,-9.01569 -0.28303,-0.26829 0.84948,-4.68488 2.05841,-8.02744 0.51569,-1.42581 1.03342,-2.38621 1.42447,-2.64244 0.58899,-0.38592 7.88055,-2.12464 10.2111,-2.4349 l 1.12129,-0.14928 9.28552,15.33624 c 10.63265,17.56117 9.56049,15.7442 9.28166,15.7294 -0.12007,-0.006 -7.62531,-3.96453 -16.67833,-8.79589 z"
       id="path1755"
       transform="matrix(0.26458333,0,0,0.26458333,51.936296,89.801063)" />
    <path
       style="fill:#ffffff;stroke:#000000;stroke-width:2.03971"
       d="m 220.05164,223.25155 c -8.64965,-4.60787 -23.47334,-12.56509 -23.56382,-12.64884 -0.13844,-0.12814 1.19266,-4.95228 1.85001,-6.70478 0.32648,-0.8704 0.80933,-1.79827 1.073,-2.06194 0.48012,-0.48012 6.50549,-2.06039 8.90292,-2.33495 l 1.21426,-0.13907 7.89272,13.06944 c 4.34099,7.1882 7.89272,13.1487 7.89272,13.24558 0,0.34457 -0.46092,0.13211 -5.26181,-2.42544 z"
       id="path1794"
       transform="matrix(0.26458333,0,0,0.26458333,51.936296,89.801063)" />
    <path
       style="fill:#ffffff;stroke:#000000;stroke-width:2.03971"
       d="m 210.24452,216.67073 c -6.5812,-3.52621 -12.07769,-6.52316 -12.21443,-6.6599 -0.26173,-0.26173 1.09333,-5.21889 1.80034,-6.5861 0.31106,-0.60153 0.77332,-0.86938 2.26919,-1.31487 2.63796,-0.78562 6.58438,-1.59101 6.79819,-1.38738 0.30661,0.29201 13.48255,22.21808 13.39512,22.29081 -0.0454,0.0378 -5.46722,-2.81635 -12.04841,-6.34256 z"
       id="path1833"
       transform="matrix(0.26458333,0,0,0.26458333,51.936296,89.801063)" />
    <path
       style="fill:#ffffff;stroke:#000000;stroke-width:2.03971"
       d="m 208.98834,214.65289 c -8.80998,-4.74503 -9.70531,-5.28979 -9.61956,-5.85302 0.18915,-1.24233 1.40201,-4.74776 1.73965,-5.02798 0.32133,-0.26668 4.34556,-1.38456 6.30594,-1.75171 l 0.85455,-0.16005 5.06425,8.42116 c 2.78534,4.63164 5.23792,8.69437 5.45018,9.0283 0.21226,0.33392 0.28089,0.59996 0.15252,0.5912 -0.12838,-0.009 -4.60477,-2.37031 -9.94753,-5.2479 z"
       id="path1872"
       transform="matrix(0.26458333,0,0,0.26458333,51.936296,89.801063)" />
    <path
       style="fill:#ffffff;stroke:#000000;stroke-width:2.03971"
       d="m 211.68671,214.76706 c -1.92933,-1.04467 -5.18929,-2.82778 -7.24436,-3.96247 l -3.73647,-2.06306 0.14166,-0.87299 c 0.0779,-0.48015 0.37885,-1.40919 0.66874,-2.06453 0.51564,-1.16567 0.57316,-1.20379 2.65039,-1.75587 1.16782,-0.31039 2.43565,-0.6389 2.81741,-0.73003 0.66116,-0.15783 0.88202,0.14778 4.65468,6.44077 2.17831,3.63355 3.96057,6.67695 3.96057,6.76313 0,0.31887 -0.48142,0.10294 -3.91262,-1.75495 z"
       id="path1911"
       transform="matrix(0.26458333,0,0,0.26458333,51.936296,89.801063)" />
    <path
       style="fill:#ffffff;stroke:#000000;stroke-width:2.03971"
       d="m 207.50424,211.12004 c -2.74559,-1.52591 -5.10879,-2.82049 -5.25156,-2.87686 -0.39324,-0.15525 0.33414,-2.30667 0.87834,-2.59791 0.25565,-0.13682 1.19243,-0.44166 2.08172,-0.67742 1.58007,-0.41888 1.62775,-0.4156 2.09291,0.14401 0.58118,0.69921 5.3789,8.64335 5.26903,8.72455 -0.0432,0.0319 -2.32485,-1.19047 -5.07044,-2.71637 z"
       id="path1950"
       transform="matrix(0.26458333,0,0,0.26458333,51.936296,89.801063)" />
    <path
       style="fill:#ffffff;stroke:#000000;stroke-width:2.03971"
       d=""
       id="path2063"
       transform="matrix(0.26458333,0,0,0.26458333,51.936296,89.801063)" />
    <path
       style="fill:#ffffff;stroke:#000000;stroke-width:2.03971"
       d="m 206.15506,209.04074 c -1.42245,-0.78538 -2.56345,-1.59084 -2.56345,-1.80959 0,-0.46422 1.0234,-1.00168 2.14065,-1.12421 0.72187,-0.0792 0.90427,0.0911 2.07465,1.93697 1.30134,2.05241 1.47744,2.43504 1.11397,2.42036 -0.11131,-0.004 -1.35593,-0.64508 -2.76582,-1.42353 z"
       id="path2102"
       transform="matrix(0.26458333,0,0,0.26458333,51.936296,89.801063)" />
    <path
       style="fill:#000000;stroke-width:0.231922"
       d="m 106.46526,143.77169 c -0.62514,0.32608 -1.39633,2.38589 -1.02324,2.73303 0.44823,0.41706 6.54906,3.61151 6.46711,3.38625 -0.0475,-0.13055 -0.90194,-1.62809 -1.89877,-3.32788 -1.94738,-3.32061 -2.17972,-3.50354 -3.5451,-2.7914 z"
       id="path4682-4-9" />
  </g>
</svg>
