<?xml version="1.0" encoding="UTF-8" standalone="no"?>
<!-- Created with Inkscape (http://www.inkscape.org/) -->

<svg
   width="92mm"
   height="92mm"
   viewBox="0 0 82.230492 71.359535"
   version="1.1"
   id="svg4934"
   inkscape:version="1.1.1 (3bf5ae0d25, 2021-09-20)"
   sodipodi:docname="threat.svg"
   xmlns:inkscape="http://www.inkscape.org/namespaces/inkscape"
   xmlns:sodipodi="http://sodipodi.sourceforge.net/DTD/sodipodi-0.dtd"
   xmlns="http://www.w3.org/2000/svg"
   xmlns:svg="http://www.w3.org/2000/svg">
  <sodipodi:namedview
     id="namedview4936"
     pagecolor="#ffffff"
     bordercolor="#666666"
     borderopacity="1.0"
     inkscape:pageshadow="2"
     inkscape:pageopacity="0.0"
     inkscape:pagecheckerboard="0"
     inkscape:document-units="mm"
     showgrid="false"
     inkscape:zoom="1.4110391"
     inkscape:cx="245.56371"
     inkscape:cy="114.45466"
     inkscape:window-width="1920"
     inkscape:window-height="1017"
     inkscape:window-x="1358"
     inkscape:window-y="-8"
     inkscape:window-maximized="1"
     inkscape:current-layer="layer1">
    <inkscape:grid
       type="xygrid"
       id="grid5653"
       originx="-54.879402"
       originy="-89.484521" />
  </sodipodi:namedview>
  <defs
     id="defs4931" />
  <g
     inkscape:label="Calque 1"
     inkscape:groupmode="layer"
     id="layer1"
     transform="translate(-54.879403,-89.484519)">
    <path
       id="path4289"
       style="fill:#000000"
       inkscape:transform-center-x="-6.2085385e-06"
       d="M 78.175781 0 L 0 134.30078 L 77.220703 269.1543 L 232.61719 269.70508 L 310.79297 135.4043 L 233.57227 0.55078125 L 78.175781 0 z M 104.70508 45.642578 L 210.49023 46.005859 L 263.05664 134.75391 L 209.83984 223.14062 L 104.05469 222.7793 L 51.488281 134.0293 L 104.70508 45.642578 z "
       transform="matrix(0.26458333,0,0,0.26458333,54.879403,89.484519)" />
    <path
       id="path4372"
       style="fill:#000000;stroke-width:1.24585"
       d="M 125.61133 80.185547 L 93.177734 135.18164 L 124.49414 190.82422 L 188.24219 191.46875 L 220.67383 136.47461 L 189.35938 80.832031 L 125.61133 80.185547 z M 150.5625 122.08398 L 167.20508 122.25195 L 175.38086 136.80078 L 166.91406 151.18164 L 150.27148 151.01367 L 142.0957 136.46289 L 150.5625 122.08398 z "
       transform="matrix(0.26458333,0,0,0.26458333,54.879403,89.484519)" />
  </g>
</svg>
