<?xml version="1.0" encoding="UTF-8" standalone="no"?>
<!-- Created with Inkscape (http://www.inkscape.org/) -->

<svg
   width="53.163456mm"
   height="60.083782mm"
   viewBox="0 0 53.163456 60.083782"
   version="1.1"
   id="svg2298"
   inkscape:version="1.1.1 (3bf5ae0d25, 2021-09-20)"
   sodipodi:docname="triumph.svg"
   xmlns:inkscape="http://www.inkscape.org/namespaces/inkscape"
   xmlns:sodipodi="http://sodipodi.sourceforge.net/DTD/sodipodi-0.dtd"
   xmlns="http://www.w3.org/2000/svg"
   xmlns:svg="http://www.w3.org/2000/svg">
  <sodipodi:namedview
     id="namedview2300"
     pagecolor="#ffffff"
     bordercolor="#666666"
     borderopacity="1.0"
     inkscape:pageshadow="2"
     inkscape:pageopacity="0.0"
     inkscape:pagecheckerboard="0"
     inkscape:document-units="mm"
     showgrid="false"
     inkscape:zoom="2.8284271"
     inkscape:cx="58.159533"
     inkscape:cy="112.96031"
     inkscape:window-width="1920"
     inkscape:window-height="1017"
     inkscape:window-x="1358"
     inkscape:window-y="-8"
     inkscape:window-maximized="1"
     inkscape:current-layer="layer1" />
  <defs
     id="defs2295" />
  <g
     inkscape:label="Calque 1"
     inkscape:groupmode="layer"
     id="layer1"
     transform="translate(-81.758353,-145.36068)">
    <ellipse
       style="fill:#ffffff;stroke:#000000;stroke-width:1.07076"
       id="path2381"
       cx="106.68655"
       cy="177.9043"
       rx="24.211206"
       ry="23.495443"
       transform="matrix(0.99999956,9.367545e-4,-0.00102054,0.99999948,0,0)" />
    <path
       style="fill:#000000;stroke:#000000;stroke-width:0.0739098;stroke-miterlimit:4;stroke-dasharray:none"
       d="m 107.09517,184.2949 c 0.0859,0.0266 2.9236,0.27804 2.94169,0.26063 0.0122,-0.0115 -0.0909,-0.79774 -0.22911,-1.74681 -1.11669,-7.67156 -1.74655,-16.04693 -2.0853,-27.72876 -0.10941,-3.77268 -0.2124,-8.08111 -0.21266,-8.89593 -2.1e-4,-0.67627 -0.008,-0.71216 -0.13236,-0.63917 -0.12835,0.0752 -0.13343,0.58318 -0.17709,17.6927 -0.0247,9.68844 -0.0644,18.38798 -0.0882,19.33228 -0.0238,0.94429 -0.0314,1.72057 -0.017,1.72506 z"
       id="path6105-8" />
    <path
       style="fill:#000000;stroke:#000000;stroke-width:0.0633979;stroke-miterlimit:4;stroke-dasharray:none"
       d="m 107.8405,184.33667 c -0.0186,0.0906 -0.19395,3.08373 -0.18181,3.10281 0.008,0.0129 0.55648,-0.0959 1.21853,-0.24166 5.35144,-1.17785 11.19385,-1.84221 19.34273,-2.19951 2.63171,-0.1154 5.63713,-0.22403 6.20553,-0.22431 0.47175,-2.2e-4 0.49678,-0.008 0.44586,-0.13961 -0.0523,-0.13538 -0.4068,-0.14074 -12.34188,-0.18679 -6.75836,-0.026 -12.8269,-0.0679 -13.48561,-0.093 -0.65872,-0.0251 -1.20023,-0.0331 -1.20335,-0.0179 z"
       id="path6105-0" />
    <path
       style="fill:none;stroke:#000000;stroke-width:0.78925;stroke-linecap:butt;stroke-linejoin:miter;stroke-miterlimit:4;stroke-dasharray:none;stroke-opacity:1"
       d="m 109.37596,185.40962 c -1.38675,6.30269 -1.40752,12.17993 -1.71395,18.14614 -0.60996,-6.14036 -0.47569,-12.14826 -2.28413,-18.50192"
       id="path2601"
       sodipodi:nodetypes="ccc" />
    <path
       style="fill:#000000;stroke:#000000;stroke-width:0.0742752;stroke-miterlimit:4;stroke-dasharray:none"
       d="m 105.59361,184.72116 c 0,-0.25785 0.21002,-2.54107 0.23596,-2.5653 0.007,-0.007 0.37434,-0.16893 0.81535,-0.35999 l 0.80185,-0.34737 v 1.76637 1.76637 h -0.92658 -0.92658 z"
       id="path5949" />
    <path
       style="fill:#000000;stroke:#000000;stroke-width:0.0824899;stroke-miterlimit:4;stroke-dasharray:none"
       d="m 106.66422,188.79176 -0.67701,-0.26213 -0.19312,-1.51204 c -0.10622,-0.83162 -0.19513,-1.56548 -0.19757,-1.6308 -0.003,-0.0892 0.22639,-0.11876 0.92367,-0.11876 h 0.92813 v 1.90021 c 0,1.04512 -0.0241,1.89694 -0.0536,1.89293 -0.0294,-0.004 -0.3582,-0.12524 -0.73055,-0.26941 z"
       id="path5988" />
    <path
       style="fill:#000000;stroke:#000000;stroke-width:0.270261;stroke-miterlimit:4;stroke-dasharray:none"
       d="m 407.18322,692.9186 v -6.22768 l 0.74205,0.14713 c 0.40813,0.0809 1.22776,0.22798 1.8214,0.32679 1.95737,0.32582 1.88338,0.15259 2.25685,5.28382 0.1871,2.57061 0.40886,5.12919 0.4928,5.68573 l 0.15261,1.01189 h -2.73286 -2.73285 z"
       id="path6027"
       transform="scale(0.26458333)" />
    <path
       style="fill:#000000;stroke:#000000;stroke-width:0.0754884;stroke-miterlimit:4;stroke-dasharray:none"
       d="m 107.73588,186.86573 v -1.59571 h 0.70369 c 0.63692,0 0.70711,0.0147 0.73985,0.15503 0.0199,0.0853 -0.0335,0.75784 -0.11871,1.49461 l -0.15488,1.33958 -0.49598,0.0962 c -0.27278,0.0529 -0.53602,0.0984 -0.58497,0.1011 -0.0684,0.004 -0.089,-0.36482 -0.089,-1.59081 z"
       id="path6066" />
    <path
       style="fill:#000000;stroke:#000000;stroke-width:0.0581656;stroke-miterlimit:4;stroke-dasharray:none"
       d="m 108.92672,184.97403 c -0.0165,-0.0859 -0.1722,-2.9236 -0.16142,-2.94169 0.007,-0.0122 0.49407,0.0909 1.08187,0.22911 4.75128,1.11669 9.93847,1.74655 17.17347,2.0853 2.33657,0.10941 5.00494,0.2124 5.50959,0.21266 0.41884,2.1e-4 0.44107,0.008 0.39586,0.13236 -0.0465,0.12835 -0.36118,0.13343 -10.95776,0.17709 -6.00042,0.0247 -11.38838,0.0644 -11.97322,0.0882 -0.58483,0.0238 -1.06561,0.0314 -1.06839,0.017 z"
       id="path6105" />
    <path
       style="fill:#000000;stroke:#000000;stroke-width:0.0537114;stroke-miterlimit:4;stroke-dasharray:none"
       d="m 107.60811,185.06106 c 0.0117,-0.10356 0.12178,-3.52508 0.11415,-3.54689 -0.005,-0.0146 -0.34941,0.10955 -0.7651,0.27624 -3.36018,1.34643 -7.028639,2.10588 -12.145332,2.51432 -1.652455,0.13192 -3.539561,0.25609 -3.896459,0.25641 -0.296211,2.5e-4 -0.311928,0.0102 -0.279958,0.15959 0.03286,0.15476 0.255434,0.16088 7.749485,0.21352 4.243584,0.0298 8.054024,0.0777 8.467634,0.10636 0.4136,0.0287 0.75361,0.0378 0.75558,0.0205 z"
       id="path6105-4" />
    <path
       style="fill:#000000;stroke:#000000;stroke-width:0.0512367;stroke-miterlimit:4;stroke-dasharray:none"
       d="m 107.62434,184.2949 c 0.0104,0.10593 0.10835,3.60549 0.10156,3.6278 -0.005,0.0151 -0.31086,-0.1121 -0.6807,-0.28255 -2.98947,-1.37714 -6.25321,-2.15391 -10.805417,-2.57167 -1.470152,-0.13492 -3.149068,-0.26193 -3.466592,-0.26226 -0.263532,-2.5e-4 -0.277515,-0.01 -0.249072,-0.16323 0.02924,-0.15828 0.227254,-0.16455 6.89454,-0.21839 3.775421,-0.0305 7.165481,-0.0794 7.533461,-0.10877 0.36798,-0.0294 0.67048,-0.0387 0.67222,-0.021 z"
       id="path6105-4-4" />
    <path
       style="fill:#000000;stroke:#000000;stroke-width:0.0758988;stroke-miterlimit:4;stroke-dasharray:none"
       d="m 107.80732,195.76298 c -0.0213,-3.98558 -0.0346,-7.25542 -0.0297,-7.26631 0.005,-0.0109 0.28778,-0.0628 0.62863,-0.11546 l 0.61973,-0.0957 -0.0462,0.25825 c -0.13898,0.77748 -0.53219,4.70675 -0.726,7.25488 -0.10216,1.34318 -0.31708,5.07367 -0.38663,6.71105 -0.0117,0.27487 -0.0386,-2.76117 -0.0598,-6.74675 z"
       id="path6183" />
    <path
       style="fill:#000000;stroke:#000000;stroke-width:0.0769748;stroke-miterlimit:4;stroke-dasharray:none"
       d="m 107.33182,205.05974 c 0,-0.32347 -0.27478,-5.03393 -0.37508,-6.42993 -0.24444,-3.40181 -0.59166,-6.66768 -0.98023,-9.21971 -0.10476,-0.6879 -0.17738,-1.26411 -0.16142,-1.28046 0.016,-0.0163 0.38236,0.0606 0.81421,0.17081 l 0.78517,0.20051 v 8.31633 c 0,4.57399 -0.0186,8.31634 -0.0413,8.31634 -0.0226,0 -0.0413,-0.0332 -0.0413,-0.0739 z"
       id="path6222" />
    <path
       style="fill:#000000;stroke:#000000;stroke-width:0.103325;stroke-miterlimit:4;stroke-dasharray:none"
       d="m 107.78667,200.95288 c 0,-0.32143 -0.49825,-5.00208 -0.68015,-6.38924 -0.4432,-3.38029 -1.07281,-6.62549 -1.77741,-9.16137 -0.19,-0.68355 -0.32154,-1.25611 -0.29275,-1.27236 0.031,-0.0162 0.6933,0.0602 1.47638,0.16973 l 1.42376,0.19924 v 8.26371 c 0,4.54504 -0.0354,8.26371 -0.0748,8.26371 -0.0399,0 -0.0748,-0.033 -0.0748,-0.0734 z"
       id="path6222-1" />
    <rect
       style="fill:#000000;stroke:#000000;stroke-width:0.27672;stroke-miterlimit:4;stroke-dasharray:none"
       id="rect6463"
       width="0.62374526"
       height="7.6631594"
       x="107.29353"
       y="197.64294" />
    <path
       style="fill:#000000;stroke:#000000;stroke-width:0.023888;stroke-miterlimit:4;stroke-dasharray:none"
       d="m 405.93844,619.38294 c 4.9e-4,-0.0394 0.006,-0.0526 0.0119,-0.0294 0.006,0.0232 0.006,0.0554 -8.8e-4,0.0716 -0.007,0.0162 -0.0115,-0.003 -0.011,-0.0422 z"
       id="path6718"
       transform="scale(0.26458333)" />
    <path
       style="fill:#000000;stroke:#000000;stroke-width:0.00844567;stroke-miterlimit:4;stroke-dasharray:none"
       d="m 405.95374,621.37857 c 1.7e-4,-0.0139 0.002,-0.0186 0.004,-0.0104 0.002,0.008 0.002,0.0196 -3.1e-4,0.0253 -0.002,0.006 -0.004,-10e-4 -0.004,-0.0149 z"
       id="path6757"
       transform="scale(0.26458333)" />
    <path
       style="fill:#000000;stroke:#000000;stroke-width:0.0625984;stroke-miterlimit:4;stroke-dasharray:none"
       d=""
       id="path6909"
       transform="scale(0.26458333)" />
    <path
       style="fill:#000000;stroke:#000000;stroke-width:0.0723324;stroke-miterlimit:4;stroke-dasharray:none"
       d="m 107.73389,184.91199 c -0.0807,0.0271 -2.74785,0.28333 -2.76485,0.26559 -0.0115,-0.0122 0.0854,-0.81292 0.21534,-1.78006 1.04956,-7.81755 1.64155,-16.35231 1.95994,-28.25645 0.10283,-3.84449 0.19963,-8.23489 0.19988,-9.06523 1.9e-4,-0.68913 0.008,-0.72572 0.1244,-0.65133 0.12063,0.0765 0.12541,0.59427 0.16644,18.02941 0.0232,9.87282 0.0605,18.73791 0.0829,19.70019 0.0224,0.96225 0.0295,1.7533 0.016,1.75788 z"
       id="path6105-1" />
  </g>
</svg>
